<svg width="259" height="619" viewBox="0 0 259 619" fill="none" xmlns="http://www.w3.org/2000/svg">
<path d="M17.0588 82.7351C51.0013 41.5193 103.038 24.2339 154.177 16.3828C164.647 14.7753 175.219 14.1442 185.795 13.7869C190.117 13.6409 195.325 13.0244 199.502 14.7214C204.287 16.6653 204.797 21.1548 204.797 25.884C204.797 33.7886 202.705 38.3174 196.439 43.2249C178.563 57.2238 156.326 65.2811 136.576 76.1933C104.329 94.0103 70.6554 113.952 44.6277 140.365C31.7043 153.48 17.7662 169.084 14.8782 188.027C13.8589 194.712 12.8863 204.771 16.3319 211.079C18.8965 215.773 24.1224 219.402 28.2213 222.501C38.4241 230.215 48.1931 233.759 60.7745 235.896C103.604 243.169 147.963 244.159 191.299 245.137C203.485 245.413 215.755 245.221 227.901 246.435C232.264 246.872 239.347 247.192 242.594 250.952C246.112 255.026 246.025 262.337 245.813 267.307C244.758 292.108 233.173 315.726 221.619 337.138C208.588 361.288 188.715 381.312 168.091 399.077C149.727 414.895 128.954 428.658 106.982 439.002C95.5853 444.368 83.5387 448.631 71.0544 450.528C68.1659 450.967 64.5111 451.978 63.3704 448.556C61.241 442.167 66.8854 430.93 68.9777 425.192C82.0967 389.216 101.471 356.007 118.82 321.977C146.899 266.899 175.103 211.918 203.24 156.875C208.784 146.03 213.489 134.56 221.619 125.361C227.472 118.738 225.52 127.321 225.253 132.266C224.477 146.676 222.054 160.748 219.542 174.943C212.753 213.312 206.178 251.709 198.931 289.995C191.924 327.013 188.705 364.461 185.172 401.932C181.452 441.397 177.193 480.814 173.231 520.255C170.741 545.044 166.844 570.604 167.52 595.59C167.567 597.327 169.411 606.056 170.323 605.143" stroke="#7DFBF5" stroke-width="26" stroke-linecap="round" stroke-linejoin="round"/>
</svg>
